<svg width="230" height="24" viewBox="0 0 230 24" fill="none" xmlns="http://www.w3.org/2000/svg">
<path d="M44.8935 16.7983L44.7017 22.4375H42.1449V19H41.1222V16.7983H44.8935ZM31.4347 19V4.45455H33.9631V16.8125H40.4972V4.45455H43.0469V19H31.4347ZM51.756 19.2131C50.6623 19.2131 49.7177 18.9858 48.9222 18.5312C48.1315 18.072 47.5231 17.4233 47.0969 16.5852C46.6708 15.7424 46.4577 14.7505 46.4577 13.6094C46.4577 12.4872 46.6708 11.5024 47.0969 10.6548C47.5278 9.80256 48.1291 9.13968 48.9009 8.66619C49.6727 8.18797 50.5794 7.94886 51.6211 7.94886C52.2934 7.94886 52.9279 8.05777 53.5245 8.27557C54.1258 8.48864 54.6561 8.82008 55.1154 9.26989C55.5794 9.7197 55.944 10.2926 56.2092 10.9886C56.4743 11.6799 56.6069 12.5038 56.6069 13.4602V14.2486H47.6651V12.5156H54.1424C54.1377 12.0232 54.0311 11.5852 53.8228 11.2017C53.6145 10.8134 53.3233 10.508 52.9492 10.2855C52.5799 10.063 52.149 9.9517 51.6566 9.9517C51.131 9.9517 50.6694 10.0795 50.2717 10.3352C49.8739 10.5862 49.5638 10.9176 49.3413 11.3295C49.1235 11.7367 49.0122 12.1842 49.0075 12.6719V14.1847C49.0075 14.8191 49.1235 15.3636 49.3555 15.8182C49.5875 16.268 49.9118 16.6136 50.3285 16.8551C50.7451 17.0919 51.2328 17.2102 51.7915 17.2102C52.1656 17.2102 52.5041 17.1581 52.8072 17.054C53.1102 16.9451 53.373 16.7865 53.5955 16.5781C53.8181 16.3698 53.9862 16.1117 54.0998 15.804L56.5004 16.0739C56.3488 16.7083 56.06 17.2623 55.6339 17.7358C55.2125 18.2045 54.6727 18.5691 54.0146 18.8295C53.3564 19.0852 52.6036 19.2131 51.756 19.2131ZM66.2749 12.4801V14.5895H60.4652V12.4801H66.2749ZM61.2607 8.09091V19H58.782V8.09091H61.2607ZM67.9581 8.09091V19H65.4865V8.09091H67.9581ZM69.3377 10.2003V8.09091H78.8832V10.2003H75.3533V19H72.8675V10.2003H69.3377ZM80.9304 23.0909V8.09091H83.4588V9.89489H83.608C83.7405 9.62973 83.9276 9.34801 84.169 9.04972C84.4105 8.74669 84.7372 8.48864 85.1491 8.27557C85.5611 8.05777 86.0866 7.94886 86.7259 7.94886C87.5687 7.94886 88.3286 8.1643 89.0057 8.59517C89.6875 9.02131 90.2273 9.65341 90.625 10.4915C91.0275 11.3248 91.2287 12.3475 91.2287 13.5597C91.2287 14.7576 91.0322 15.7756 90.6392 16.6136C90.2462 17.4517 89.7112 18.0909 89.0341 18.5312C88.357 18.9716 87.59 19.1918 86.733 19.1918C86.108 19.1918 85.5895 19.0876 85.1776 18.8793C84.7656 18.6709 84.4342 18.42 84.1832 18.1264C83.937 17.8281 83.7453 17.5464 83.608 17.2812H83.5014V23.0909H80.9304ZM83.4517 13.5455C83.4517 14.2509 83.5511 14.8688 83.75 15.3991C83.9536 15.9295 84.2448 16.3437 84.6236 16.642C85.0071 16.9356 85.4711 17.0824 86.0156 17.0824C86.5838 17.0824 87.0597 16.9309 87.4432 16.6278C87.8267 16.3201 88.1155 15.901 88.3097 15.3707C88.5085 14.8357 88.608 14.2273 88.608 13.5455C88.608 12.8684 88.5109 12.267 88.3168 11.7415C88.1226 11.2159 87.8338 10.804 87.4503 10.5057C87.0668 10.2074 86.5885 10.0582 86.0156 10.0582C85.4664 10.0582 85 10.2027 84.6165 10.4915C84.233 10.7803 83.9418 11.1851 83.7429 11.706C83.5488 12.2268 83.4517 12.84 83.4517 13.5455Z" fill="#AFFFA4"/>
<path d="M101.534 19V8.09091H103.21V12.8352H104.318L108.239 8.09091H110.398L105.994 13.3466L110.455 19H108.295L104.716 14.3977H103.21V19H101.534ZM115.487 19.2557C114.795 19.2557 114.168 19.1255 113.604 18.8651C113.041 18.5999 112.594 18.2188 112.262 17.7216C111.931 17.2197 111.765 16.6136 111.765 15.9034C111.765 15.2784 111.888 14.7718 112.134 14.3835C112.38 13.9905 112.71 13.6828 113.121 13.4602C113.533 13.2377 113.988 13.072 114.485 12.9631C114.987 12.8494 115.491 12.7595 115.998 12.6932C116.661 12.608 117.198 12.544 117.61 12.5014C118.027 12.4541 118.33 12.3759 118.519 12.267C118.713 12.1581 118.81 11.9687 118.81 11.6989V11.642C118.81 10.9413 118.619 10.3968 118.235 10.0085C117.856 9.62027 117.281 9.42614 116.509 9.42614C115.709 9.42614 115.082 9.60133 114.627 9.9517C114.173 10.3021 113.853 10.6761 113.668 11.0739L112.077 10.5057C112.362 9.8428 112.74 9.3267 113.214 8.95739C113.692 8.58333 114.213 8.32292 114.776 8.17614C115.344 8.02462 115.903 7.94886 116.452 7.94886C116.803 7.94886 117.205 7.99148 117.66 8.0767C118.119 8.1572 118.562 8.32528 118.988 8.58097C119.419 8.83665 119.776 9.22254 120.06 9.73864C120.344 10.2547 120.487 10.946 120.487 11.8125V19H118.81V17.5227H118.725C118.612 17.7595 118.422 18.0128 118.157 18.2827C117.892 18.5526 117.539 18.7822 117.099 18.9716C116.658 19.161 116.121 19.2557 115.487 19.2557ZM115.742 17.75C116.405 17.75 116.964 17.6198 117.418 17.3594C117.878 17.099 118.223 16.7628 118.455 16.3509C118.692 15.9389 118.81 15.5057 118.81 15.0511V13.517C118.739 13.6023 118.583 13.6804 118.342 13.7514C118.105 13.8177 117.83 13.8769 117.518 13.929C117.21 13.9763 116.909 14.0189 116.616 14.0568C116.327 14.09 116.093 14.1184 115.913 14.142C115.477 14.1989 115.07 14.2912 114.691 14.419C114.317 14.5421 114.014 14.7292 113.782 14.9801C113.555 15.2263 113.441 15.5625 113.441 15.9886C113.441 16.571 113.656 17.0114 114.087 17.3097C114.523 17.6032 115.075 17.75 115.742 17.75ZM123.546 23.0909V8.09091H125.165V9.82386H125.364C125.487 9.63447 125.658 9.39299 125.875 9.09943C126.098 8.80114 126.415 8.53598 126.827 8.30398C127.244 8.06723 127.807 7.94886 128.517 7.94886C129.436 7.94886 130.246 8.1785 130.946 8.63778C131.647 9.09706 132.194 9.74811 132.587 10.5909C132.98 11.4337 133.176 12.428 133.176 13.5739C133.176 14.7292 132.98 15.7306 132.587 16.5781C132.194 17.4209 131.65 18.0743 130.953 18.5384C130.257 18.9976 129.455 19.2273 128.546 19.2273C127.845 19.2273 127.284 19.1113 126.863 18.8793C126.441 18.6425 126.117 18.375 125.89 18.0767C125.662 17.7737 125.487 17.5227 125.364 17.3239H125.222V23.0909H123.546ZM125.194 13.5455C125.194 14.3693 125.314 15.0961 125.556 15.7259C125.797 16.3509 126.15 16.8409 126.614 17.196C127.078 17.5464 127.646 17.7216 128.319 17.7216C129.019 17.7216 129.604 17.5369 130.073 17.1676C130.546 16.7936 130.901 16.2917 131.138 15.6619C131.38 15.0275 131.5 14.322 131.5 13.5455C131.5 12.7784 131.382 12.0871 131.145 11.4716C130.913 10.8513 130.56 10.3613 130.087 10.0014C129.618 9.63684 129.029 9.45455 128.319 9.45455C127.637 9.45455 127.064 9.62737 126.6 9.97301C126.136 10.3139 125.785 10.7921 125.549 11.4077C125.312 12.0185 125.194 12.7311 125.194 13.5455ZM137.182 12.0398H140.307C141.586 12.0398 142.563 12.3641 143.24 13.0128C143.917 13.6615 144.256 14.483 144.256 15.4773C144.256 16.1307 144.105 16.7249 143.801 17.2599C143.498 17.7902 143.053 18.214 142.466 18.5312C141.879 18.8438 141.159 19 140.307 19H135.733V8.09091H137.409V17.4375H140.307C140.97 17.4375 141.515 17.2623 141.941 16.9119C142.367 16.5616 142.58 16.1117 142.58 15.5625C142.58 14.9848 142.367 14.5137 141.941 14.1491C141.515 13.7846 140.97 13.6023 140.307 13.6023H137.182V12.0398ZM151.381 19.2273C150.33 19.2273 149.424 18.9953 148.661 18.5312C147.904 18.0625 147.319 17.4091 146.907 16.571C146.5 15.7282 146.296 14.7481 146.296 13.6307C146.296 12.5133 146.5 11.5284 146.907 10.6761C147.319 9.81913 147.892 9.15152 148.626 8.6733C149.364 8.19034 150.226 7.94886 151.211 7.94886C151.779 7.94886 152.34 8.04356 152.894 8.23295C153.448 8.42235 153.952 8.73011 154.407 9.15625C154.862 9.57765 155.224 10.1364 155.494 10.8324C155.763 11.5284 155.898 12.3854 155.898 13.4034V14.1136H147.489V12.6648H154.194C154.194 12.0492 154.071 11.5 153.825 11.017C153.583 10.5341 153.237 10.1529 152.788 9.87358C152.343 9.59422 151.817 9.45455 151.211 9.45455C150.543 9.45455 149.966 9.62026 149.478 9.9517C148.995 10.2784 148.623 10.7045 148.363 11.2301C148.103 11.7557 147.972 12.3191 147.972 12.9205V13.8864C147.972 14.7102 148.114 15.4086 148.398 15.9815C148.687 16.5497 149.087 16.983 149.599 17.2812C150.11 17.5748 150.704 17.7216 151.381 17.7216C151.822 17.7216 152.219 17.66 152.575 17.5369C152.934 17.4091 153.245 17.2197 153.505 16.9688C153.765 16.7131 153.967 16.3958 154.109 16.017L155.728 16.4716C155.558 17.0208 155.271 17.5038 154.869 17.9205C154.466 18.3324 153.969 18.6544 153.377 18.8864C152.785 19.1136 152.12 19.2273 151.381 19.2273ZM158.448 23.0909V8.09091H160.067V9.82386H160.266C160.389 9.63447 160.56 9.39299 160.778 9.09943C161 8.80114 161.317 8.53598 161.729 8.30398C162.146 8.06723 162.71 7.94886 163.42 7.94886C164.338 7.94886 165.148 8.1785 165.849 8.63778C166.549 9.09706 167.096 9.74811 167.489 10.5909C167.882 11.4337 168.079 12.428 168.079 13.5739C168.079 14.7292 167.882 15.7306 167.489 16.5781C167.096 17.4209 166.552 18.0743 165.856 18.5384C165.16 18.9976 164.357 19.2273 163.448 19.2273C162.747 19.2273 162.186 19.1113 161.765 18.8793C161.344 18.6425 161.019 18.375 160.792 18.0767C160.565 17.7737 160.389 17.5227 160.266 17.3239H160.124V23.0909H158.448ZM160.096 13.5455C160.096 14.3693 160.217 15.0961 160.458 15.7259C160.7 16.3509 161.052 16.8409 161.516 17.196C161.98 17.5464 162.549 17.7216 163.221 17.7216C163.922 17.7216 164.506 17.5369 164.975 17.1676C165.449 16.7936 165.804 16.2917 166.04 15.6619C166.282 15.0275 166.403 14.322 166.403 13.5455C166.403 12.7784 166.284 12.0871 166.048 11.4716C165.816 10.8513 165.463 10.3613 164.989 10.0014C164.521 9.63684 163.931 9.45455 163.221 9.45455C162.539 9.45455 161.966 9.62737 161.502 9.97301C161.038 10.3139 160.688 10.7921 160.451 11.4077C160.214 12.0185 160.096 12.7311 160.096 13.5455ZM172.085 12.0398H175.21C176.488 12.0398 177.466 12.3641 178.143 13.0128C178.82 13.6615 179.158 14.483 179.158 15.4773C179.158 16.1307 179.007 16.7249 178.704 17.2599C178.401 17.7902 177.956 18.214 177.369 18.5312C176.781 18.8438 176.062 19 175.21 19H170.636V8.09091H172.312V17.4375H175.21C175.872 17.4375 176.417 17.2623 176.843 16.9119C177.269 16.5616 177.482 16.1117 177.482 15.5625C177.482 14.9848 177.269 14.5137 176.843 14.1491C176.417 13.7846 175.872 13.6023 175.21 13.6023H172.085V12.0398ZM180.891 19V8.09091H182.567V19H180.891Z" fill="#171717"/>
<path d="M13 15V17H17V19H7.00003V17H11V15H2.99203C2.86071 14.999 2.73088 14.972 2.60995 14.9208C2.48903 14.8696 2.37938 14.7951 2.28726 14.7015C2.19514 14.6079 2.12237 14.497 2.07308 14.3753C2.0238 14.2536 1.99898 14.1233 2.00003 13.992V1.008C2.00003 0.451 2.45503 0 2.99203 0H21.008C21.556 0 22 0.449 22 1.007V13.992C22 14.549 21.545 15 21.008 15H13Z" fill="black"/>
</svg>
